<svg id="Layer_1" data-name="Layer 1" xmlns="http://www.w3.org/2000/svg" viewBox="0 0 461 461"><defs><style>.cls-1{fill:none;stroke:#fff;stroke-miterlimit:10;stroke-width:38px;}</style></defs><polygon points="161.33 140.57 141.79 162.94 139.25 172.75 156.13 186.16 132.37 216.3 119.47 207.28 113.56 210.89 94.7 232.41 88.41 248.22 96.69 260.92 137.02 294.84 149.81 297.77 158.26 295.87 185.95 261.89 173.94 249.48 198.5 219.3 208.47 228.3 218.92 232.98 255.66 189.65 254.92 184.85 253.11 180.08 244.07 163.82 240.65 148.32 242.21 135.93 245.97 127.19 251.26 118.71 257.58 113.23 264.8 107 275.02 99.91 288.14 92.25 291.66 90.16 288.52 85.57 283.27 82.7 274.35 80.9 263.12 79.02 252.69 78.43 243.1 80.75 230.47 84.31 219.11 88.34 206.52 93.29 161.33 140.57" fill="#fff"/><path d="M442.38,374.19,291.92,219.45c-6.8-7-16.9-5.63-22.28,3l-10.86,17.46c-5.21,8.37-4,20.41,2.68,27L441.84,445" transform="translate(-21 -18)" fill="#fff"/><path d="M512,408.63" transform="translate(-21 -18)" fill="#fff"/><rect class="cls-1" x="19" y="19" width="423" height="423" rx="97.77"/></svg>